<?xml version="1.0" encoding="UTF-8"?>
<svg width="910px" height="428px" viewBox="0 0 910 428" version="1.1" xmlns="http://www.w3.org/2000/svg" xmlns:xlink="http://www.w3.org/1999/xlink">
    <!-- Generator: Sketch 57.1 (83088) - https://sketch.com -->
    <title>logoSVG</title>
    <desc>Created with Sketch.</desc>
    <g id="Page-1" stroke="none" stroke-width="1" fill="none" fill-rule="evenodd">
        <g id="logo" fill-rule="nonzero">
            <g id="Group" transform="translate(454.500000, 213.600000) scale(-1, 1) rotate(-180.000000) translate(-454.500000, -213.600000) translate(0.000000, 0.100000)">
                <path d="M524.5,426 C522.9,425.5 518.4,422.6 514.5,419.5 C505.6,412.4 503.1,411.1 496.7,410.4 C488.5,409.5 486.5,408.1 475.8,396 C472.2,391.9 467.5,387.6 465.5,386.6 C463.4,385.5 460.5,383.5 459,382.1 C457.5,380.7 453.3,378.6 449.7,377.3 C440.5,374 437.8,370.7 433.8,357.6 L430.6,347.1 L423.3,340.8 C414.4,333.2 408.8,330.1 404,330.1 C398.6,330.1 395.4,327.2 394,320.9 C393.4,318 392.3,314 391.5,312.1 C390.8,310.2 389.7,306.7 389.1,304.5 C387.1,296.9 377.8,290.8 368.9,291.2 C367,291.3 364.1,290.8 362.4,290.1 C359.6,288.9 358.1,289.1 349.9,291.3 C333.6,295.8 335,295.9 335,290.3 L335,285.4 L355.3,267.8 L375.5,250.1 L452,250.1 C494.1,250.1 536.8,249.8 547,249.5 L565.5,248.9 L570.8,256.2 C573.6,260.3 577,265.1 578.3,267 C581,271.1 586.3,274.1 590.8,274.1 C593.4,274.1 595.1,273.2 597.8,270.5 C604.2,264.1 607.7,267.2 611.6,282.6 C612.9,287.8 614.4,293 615,294.1 C616.1,296.2 619.2,316.2 619.2,321.6 C619.3,330 617.1,348 615.7,350.6 C613,356 612,361.7 611.5,374.7 C611,391.8 609.6,402.5 607.7,405.5 C606.8,406.8 604.4,408.4 602.3,409 C599.3,409.8 599.2,410 601.5,409.7 L604.5,409.3 L601,412.2 C596.1,416.3 592.4,417.1 577.5,417.1 C563,417.1 558.5,418 554.1,421.7 C552.1,423.3 549.1,424.5 545.3,425.1 C535.2,426.6 527.6,426.9 524.5,426 Z M542.8,419.4 C541.8,419.2 540.2,419.2 539.3,419.4 C538.3,419.7 539.1,419.9 541,419.9 C542.9,419.9 543.7,419.7 542.8,419.4 Z M558.3,417.1 C561.8,414.4 568.9,411.2 572,411 C573.7,410.9 574,410.7 572.7,410.4 C570.2,409.8 564.1,411.9 560.1,414.9 C558.3,416.3 555.3,417.7 553.6,418.2 C550.7,418.8 550.7,418.9 553.1,419 C554.6,419.1 556.9,418.2 558.3,417.1 Z" id="Shape" fill="#E03C31"></path>
                <path d="M804,329.4 C808.1,324.4 817,304.7 817.3,299.9 C817.4,297.8 817.8,296.1 818.2,296.1 C818.6,296.1 819.7,294.5 820.5,292.5 C821.7,289.5 821.8,288.5 820.8,287.3 C820,286.3 819.9,286 820.6,286.4 C822.4,287.5 824,284.8 823.8,280.8 C823.7,276.5 824.6,276.9 808,274.6 C801.7,273.7 792.7,272.3 788,271.4 C783.3,270.5 778.6,269.9 777.4,269.9 C772.9,270.2 760.4,277 756,281.5 C750.8,286.9 748.8,287.4 749.7,283.1 C750.2,280.5 750,280.1 748.1,280.1 C747,280.1 746,279.8 746,279.3 C746,278.9 748.3,275.8 751.2,272.3 C754.6,268.1 756.4,264.9 756.6,262.8 C756.7,261 755.4,255.2 753.7,249.9 C752,244.5 750.9,239.8 751.3,239.5 C752.2,238.5 756.2,242.4 762.9,250.8 L768.4,257.6 L786.9,257.6 C797.5,257.6 808.3,258.1 812,258.8 C820.4,260.4 824.4,259.5 824.8,255.8 C825,254.3 824.7,253.1 824.1,253.1 C823.5,253.1 823,252.6 823,252 C823,251.5 823.5,251.3 824,251.6 C825.7,252.7 825.1,249.2 823.3,247.3 C822.3,246.3 821.4,244.2 821.3,242.6 C821.2,240.9 820.5,239.2 819.7,238.6 C819,238.1 818.6,236.9 818.8,235.9 C819,235 817.3,230.6 815.1,226.2 C811.2,218.5 810.9,218.2 808.4,219.1 C804.8,220.5 804.5,220.4 806.5,218.1 C808.7,215.6 813.6,215.5 817.2,217.9 C819.6,219.4 826.9,228.8 837.6,244.3 L840.7,248.7 L846.6,248.3 C854,247.8 858,249.2 858,252.3 C858,253.6 857.6,255.2 857.1,256 C856.1,257.6 850.6,258 847.5,256.6 C846.1,256 846.4,256.8 848.8,259.2 C850.5,261.1 852,263.2 852,263.8 C852,264.4 855,265.4 858.8,266.1 C862.5,266.7 871.8,268.2 879.5,269.5 C893.9,271.9 902.6,274.6 907,278.1 C910,280.5 909.2,281.3 901,283.8 C894.2,285.8 882.2,285.8 868,283.7 C862.3,282.8 857.5,282.1 857.4,282.1 C857.2,282.1 857,283.6 856.8,285.4 C856.5,288.5 856.4,288.6 852,288.5 C849.5,288.4 846.3,288.2 844.7,288 C842.1,287.6 841,288.9 828.7,306.1 C817.1,322.3 814.7,325.1 809.1,328.8 C805.6,331.2 802.3,333.1 801.8,333.1 C801.3,333.1 802.3,331.4 804,329.4 Z" id="Path" stroke="#979797" fill="#000000"></path>
                <path d="M189.1,315.7 C187.3,312.7 186,308.9 186,307 C186,299.4 192.3,253.6 193.4,252.6 C194.1,252.1 216.6,234.1 243.3,212.7 C270.1,191.2 292,173.4 292,173 C292,171.6 236.8,125.6 234.2,124.8 C214.8,119.3 179,111.3 179,112.6 C179,112.8 194.8,126.3 214,142.7 C233.3,159.1 249,172.8 249,173.1 C249,173.6 237.5,182.7 206.2,207 L196.7,214.5 L197.3,210.5 C197.6,208.4 198.2,203.8 198.6,200.5 C199.2,194.9 199,194.3 197.2,193.7 C195,192.9 184,181.8 184,180.2 C184,178.8 178.5,178.8 172.1,180.2 C168,181.1 166.5,181 164,179.7 C161.3,178.4 159.8,178.4 151.2,179.7 C145.9,180.5 137.9,182.3 133.4,183.7 L125.4,186.2 L124.2,190.8 C122.5,197.2 116.5,203.1 111.8,203.1 C109.7,203.1 107.7,202.4 106.8,201.4 C103.4,197.4 90,174.3 90,172.4 C90,171.3 94,165.8 99.1,160 C107.2,150.7 113,141.8 113,138.4 C113,137.8 114.3,135.8 116,134 C117.6,132.2 120.6,127.5 122.6,123.6 C124.6,119.8 127.7,115.1 129.4,113.3 L132.5,110 L121.5,110.6 C87.5,112.5 71,114.7 50.3,120.1 C31.4,125 17.4,131.8 12.6,138.4 C11,140.6 10.5,142.7 10.6,147.6 C10.7,156.3 13.8,161.1 24.8,170.2 C37,180.3 45,185.3 62.6,193.7 C79.8,202 89.7,205.2 116.3,211 C130.8,214.2 193.2,226.1 195.5,226.1 C195.8,226.1 196,226.8 196,227.7 C196,228.9 195.3,229.1 193.3,228.7 C191.7,228.4 179.5,226.3 166,224.1 C135.6,219.1 95.4,211 83.6,207.6 C51.3,198.2 8.1,171.9 2.6,158.1 C0.3,152.4 -0.4,144.3 0.9,139.4 C4.4,126.3 31.2,113 69.5,105.2 C86.7,101.8 99.3,100.4 123.7,99.5 L141,98.8 L145.7,93.6 L150.5,88.4 L157.3,94.3 C163.2,99.4 164.6,100.1 168.3,100.1 C176.2,100.2 198.2,103.8 213.5,107.7 C215.6,108.2 208.8,102 191.3,87.2 C167.6,67.3 166.2,65.8 167,63.5 C167.8,61.4 167.7,61.1 165.6,61.1 C163.6,61.1 162.8,60.1 160.6,54 C159.2,50.2 158,46 158,44.7 C158,41.7 162.6,35.4 171.3,26.3 C177.3,20 178.1,18.7 177.6,16.3 C175.9,8.8 175.8,7 177,5.6 C179,3.2 181,3.8 182.1,7.1 C182.7,8.7 183.6,10.1 184.2,10.1 C185.9,10.1 189.4,7.9 192.7,4.9 C195.9,1.8 203.6,-0.5 205.5,1.1 C208.2,3.2 349.7,116.5 357.5,122.8 L366.5,130.1 L401.9,130.1 L437.2,130.1 L436.7,132.4 C436.4,133.6 435.8,136.7 435.5,139.4 C435.1,142 434.4,144.4 433.9,144.7 C432.6,145.4 432.8,147.1 434.1,147.1 C436.5,147.1 441.3,151.6 446.6,158.7 C452,166.1 456.8,170.1 460.3,170.1 C461.4,170.1 463.4,170.9 464.8,172 C466.3,173 470.6,174.7 474.4,175.9 L481.3,178 L486.5,174.7 C489.3,172.8 493.3,169.9 495.3,168.2 L498.9,165 L495.8,159.3 C491.4,151.3 488.3,147.3 484.6,144.9 L481.4,142.8 L483,136.7 L484.7,130.6 L517.6,130.3 L550.5,130.1 L555.3,136.5 C559.9,142.8 576,158.4 580.3,160.8 C581.5,161.5 585.3,163 588.7,164.1 C600.5,168.1 611.1,181.1 616.9,198.4 C618.8,204 621.4,209.3 623.5,212 C625.4,214.4 627,216.8 627,217.4 C627,217.9 622.9,218.2 616.5,217.9 C610.8,217.7 606.6,217.8 607.3,218.2 C607.9,218.6 633.1,225.8 663.2,234.2 C693.3,242.6 717.8,249.6 717.601216,249.8 C717.4,250.1 701.7,246.2 682.9,241.2 C628.8,227.1 614.3,223.4 602,220.4 L590.5,217.6 L479.4,217.9 L368.2,218.1 L328.4,252.2 C289.5,285.4 288.5,286.2 288.2,283.2 C288,280.9 286.4,278.8 281.8,274.9 C278.4,272 273.4,267.2 270.6,264.2 C267.8,261.3 262.9,257.1 259.8,255 L254.2,251.1 L240,250.6 C232.2,250.3 225.5,249.9 225.1,249.6 C223.5,248.7 220.8,253.1 220.3,257.4 C219.9,260.4 220.5,263.9 222,268.4 C224.7,276.3 224.3,282.9 221.1,287 C219.9,288.4 218.5,290.7 217.8,292.1 C213.2,302.4 211.4,305.7 208,309.9 C204.3,314.7 195.9,321.1 193.4,321.1 C192.7,321.1 190.8,318.7 189.1,315.7 Z M198.9,305.4 C202.6,301.6 203,301 200,303.7 C197.5,306 194.4,308.5 193,309.5 C191.7,310.4 191.1,311.1 191.9,311.1 C192.6,311.1 195.8,308.5 198.9,305.4 Z" id="Shape" fill="#007749"></path>
                <path d="M293.5,303.7 C291.4,301.6 289,295.6 289,292.2 C289,291.5 290,292.1 291.2,293.7 C292.4,295.3 293.7,296.8 294.1,297.1 C294.8,297.7 297,306.1 296.3,306.1 C296.1,306.1 294.8,305 293.5,303.7 Z" id="Path" fill="#000000"></path>
                <path d="M342,77 C324.1,62.7 295.4,40 278.2,26.4 C261,12.9 247.1,1.7 247.199464,1.6 C247.4,1.5 253.2,1.7 260.1,2 C273.5,2.6 273.9,2.8 283.2,10.2 C286.6,13 293.7,13.7 303.9,12.2 C311.1,11.1 312.4,11.2 317.9,13.1 C325.9,15.8 329.4,15.6 343.7,12.1 C356.7,8.9 359.4,9 362.2,13 C363.5,14.9 364.6,15.1 373.1,14.8 L382.5,14.6 L383.4,17.8 C384.8,22.5 387.9,23.4 398.1,22.3 C405.8,21.4 407.1,21.6 413.5,23.7 C417.4,25.1 422.3,27.1 424.5,28.2 C426.7,29.4 431.4,31.8 435,33.6 C449.7,41 487,67.5 491.1,73.5 C492.5,75.5 497.8,79.6 504.4,83.7 C514.5,89.9 527,100.2 527,102.3 C527,102.7 492.7,103.1 450.8,103 L374.5,103 L342,77 Z" id="Path" fill="#001489"></path>
            </g>
        </g>
    </g>
</svg>